<svg width="1339" height="353" viewBox="0 0 1339 353" fill="none" xmlns="http://www.w3.org/2000/svg">
<path d="M1.47831 212.354C1.39786 212.09 1.1185 211.941 0.854333 212.022C0.590169 212.102 0.44124 212.381 0.521689 212.646L1.47831 212.354ZM133 333.5L133.168 333.971L133.176 333.968L133.184 333.965L133 333.5ZM382 7.99993L382.045 7.50198L382.023 7.49993H382V7.99993ZM603 212.5L602.517 212.63L603 212.5ZM827 324L827.249 324.434L827.286 324.413L827.318 324.386L827 324ZM1071.5 30.5L1071.89 30.183L1071.88 30.1768L1071.88 30.1708L1071.5 30.5ZM1164 310.5L1163.68 310.886L1163.76 310.951L1163.86 310.98L1164 310.5ZM1335 152L1332.27 157.086L1338.04 156.909L1335 152ZM3.07824 220.586C3.16668 220.848 3.45045 220.988 3.71204 220.9C3.97364 220.811 4.114 220.528 4.02555 220.266L3.07824 220.586ZM9.75433 235.873C9.65275 235.617 9.36224 235.491 9.10546 235.592C8.84868 235.694 8.72287 235.985 8.82445 236.241L9.75433 235.873ZM15.3614 251.629C15.4758 251.88 15.7723 251.991 16.0236 251.877C16.2749 251.763 16.3859 251.466 16.2715 251.215L15.3614 251.629ZM23.5798 266.165C23.4515 265.921 23.1492 265.827 22.9047 265.955C22.6602 266.083 22.566 266.386 22.6944 266.63L23.5798 266.165ZM30.9326 281.173C31.0768 281.409 31.3846 281.483 31.6201 281.339C31.8556 281.194 31.9296 280.887 31.7854 280.651L30.9326 281.173ZM41.0213 294.485C40.8584 294.262 40.5456 294.214 40.3226 294.376C40.0996 294.539 40.0509 294.852 40.2138 295.075L41.0213 294.485ZM50.7353 308.067C50.9205 308.272 51.2367 308.288 51.4415 308.103C51.6463 307.917 51.6622 307.601 51.477 307.396L50.7353 308.067ZM63.3949 318.957C63.1833 318.779 62.8679 318.807 62.6904 319.018C62.513 319.23 62.5406 319.545 62.7522 319.723L63.3949 318.957ZM76.4676 329.317C76.708 329.453 77.013 329.368 77.1488 329.128C77.2847 328.888 77.1999 328.583 76.9595 328.447L76.4676 329.317ZM92.1696 334.889C91.9041 334.813 91.6273 334.966 91.5513 335.232C91.4752 335.497 91.6288 335.774 91.8943 335.85L92.1696 334.889ZM108.457 338.299C108.733 338.303 108.96 338.082 108.963 337.806C108.967 337.53 108.746 337.303 108.47 337.299L108.457 338.299ZM124.878 335.409C124.61 335.473 124.445 335.743 124.509 336.012C124.574 336.28 124.844 336.445 125.112 336.381L124.878 335.409ZM140.631 330.361C140.871 330.224 140.954 329.919 140.816 329.679C140.679 329.439 140.374 329.356 140.134 329.494L140.631 330.361ZM153.207 319.85C153.003 320.035 152.987 320.351 153.173 320.556C153.358 320.761 153.674 320.776 153.879 320.591L153.207 319.85ZM165.248 308.587C165.424 308.374 165.395 308.059 165.182 307.883C164.97 307.707 164.654 307.736 164.478 307.949L165.248 308.587ZM174.262 294.866C174.106 295.095 174.165 295.406 174.393 295.561C174.621 295.717 174.932 295.658 175.088 295.43L174.262 294.866ZM183.914 281.485C184.055 281.247 183.976 280.941 183.738 280.8C183.501 280.66 183.194 280.738 183.053 280.976L183.914 281.485ZM191.084 266.635C190.954 266.879 191.047 267.182 191.29 267.311C191.534 267.441 191.837 267.349 191.967 267.105L191.084 266.635ZM199.446 252.485C199.568 252.237 199.467 251.937 199.219 251.815C198.971 251.693 198.672 251.795 198.549 252.043L199.446 252.485ZM205.64 237.235C205.524 237.485 205.632 237.782 205.882 237.899C206.132 238.016 206.43 237.908 206.547 237.657L205.64 237.235ZM213.384 222.7C213.497 222.448 213.384 222.152 213.132 222.039C212.88 221.926 212.584 222.038 212.471 222.29L213.384 222.7ZM219.138 207.265C219.027 207.518 219.141 207.813 219.394 207.924C219.647 208.035 219.942 207.92 220.053 207.667L219.138 207.265ZM226.638 192.599C226.749 192.346 226.633 192.051 226.38 191.941C226.127 191.831 225.832 191.946 225.722 192.199L226.638 192.599ZM232.298 177.128C232.187 177.381 232.302 177.676 232.555 177.787C232.808 177.898 233.103 177.783 233.214 177.53L232.298 177.128ZM239.85 162.49C239.962 162.238 239.849 161.942 239.597 161.83C239.344 161.718 239.049 161.831 238.937 162.083L239.85 162.49ZM245.707 147.096C245.592 147.347 245.702 147.644 245.953 147.759C246.204 147.874 246.501 147.764 246.616 147.513L245.707 147.096ZM253.583 132.633C253.703 132.384 253.597 132.086 253.348 131.966C253.099 131.847 252.801 131.952 252.681 132.201L253.583 132.633ZM259.937 117.442C259.812 117.689 259.911 117.99 260.157 118.114C260.404 118.239 260.705 118.14 260.829 117.894L259.937 117.442ZM268.439 103.349C268.57 103.106 268.48 102.803 268.238 102.671C267.995 102.54 267.691 102.63 267.56 102.873L268.439 103.349ZM275.648 88.5629C275.508 88.8007 275.587 89.1073 275.824 89.2477C276.062 89.3882 276.369 89.3093 276.509 89.0715L275.648 88.5629ZM285.181 75.1159C285.333 74.8849 285.268 74.575 285.037 74.4236C284.806 74.2721 284.496 74.3366 284.345 74.5675L285.181 75.1159ZM293.778 61.0464C293.613 61.2678 293.659 61.5811 293.88 61.7461C294.101 61.9111 294.415 61.8653 294.58 61.6439L293.778 61.0464ZM304.857 48.8613C305.039 48.6532 305.017 48.3373 304.809 48.1558C304.601 47.9743 304.285 47.9958 304.104 48.2039L304.857 48.8613ZM315.496 36.3287C315.295 36.5179 315.285 36.8343 315.474 37.0355C315.663 37.2367 315.98 37.2464 316.181 37.0572L315.496 36.3287ZM328.748 26.6018C328.971 26.4395 329.021 26.1269 328.858 25.9034C328.696 25.68 328.383 25.6305 328.16 25.7927L328.748 26.6018ZM342.213 17.1372C341.967 17.2624 341.869 17.5634 341.995 17.8096C342.12 18.0557 342.421 18.1536 342.667 18.0284L342.213 17.1372ZM357.806 11.9683C358.071 11.8901 358.223 11.6119 358.144 11.3471C358.066 11.0823 357.788 10.9311 357.523 11.0093L357.806 11.9683ZM373.691 7.8885C373.417 7.91447 373.215 8.15839 373.241 8.43331C373.267 8.70823 373.511 8.91004 373.786 8.88407L373.691 7.8885ZM390.115 9.16912C390.39 9.19036 390.631 8.98438 390.652 8.70905C390.673 8.43373 390.467 8.19332 390.192 8.17209L390.115 9.16912ZM406.596 9.5176C406.322 9.49165 406.078 9.69349 406.052 9.96841C406.026 10.2433 406.228 10.4872 406.502 10.5132L406.596 9.5176ZM422.799 12.4319C423.072 12.4717 423.326 12.2824 423.366 12.0091C423.405 11.7358 423.216 11.4821 422.943 11.4424L422.799 12.4319ZM439.171 14.3681C438.901 14.3091 438.635 14.4801 438.576 14.7498C438.517 15.0196 438.688 15.2861 438.958 15.345L439.171 14.3681ZM454.805 19.499C455.069 19.5805 455.349 19.4327 455.43 19.1688C455.512 18.905 455.364 18.625 455.1 18.5435L454.805 19.499ZM470.6 24.1281C470.345 24.0223 470.052 24.1432 469.947 24.3983C469.841 24.6534 469.962 24.9459 470.217 25.0517L470.6 24.1281ZM485.029 32.0662C485.273 32.1966 485.576 32.105 485.706 31.8615C485.836 31.6181 485.745 31.3151 485.501 31.1847L485.029 32.0662ZM499.617 39.6702C499.387 39.5164 499.077 39.5777 498.923 39.8071C498.769 40.0365 498.831 40.3471 499.06 40.5008L499.617 39.6702ZM512.192 50.2509C512.406 50.4258 512.721 50.3944 512.895 50.1807C513.07 49.967 513.039 49.652 512.825 49.4771L512.192 50.2509ZM525.101 60.4942C524.904 60.3009 524.587 60.3039 524.394 60.5011C524.201 60.6982 524.204 61.0148 524.401 61.2082L525.101 60.4942ZM535.597 73.1426C535.778 73.3515 536.094 73.3743 536.302 73.1937C536.511 73.013 536.534 72.6972 536.353 72.4884L535.597 73.1426ZM546.681 85.3795C546.517 85.1579 546.203 85.1117 545.982 85.2764C545.76 85.4411 545.714 85.7543 545.879 85.976L546.681 85.3795ZM555.18 99.4101C555.329 99.6421 555.639 99.7087 555.871 99.5589C556.103 99.4091 556.169 99.0996 556.02 98.8676L555.18 99.4101ZM564.527 112.949C564.391 112.709 564.086 112.624 563.846 112.76C563.605 112.896 563.521 113.201 563.656 113.441L564.527 112.949ZM571.359 127.943C571.482 128.19 571.782 128.29 572.03 128.167C572.277 128.044 572.377 127.743 572.254 127.496L571.359 127.943ZM579.258 142.404C579.146 142.152 578.851 142.038 578.599 142.15C578.346 142.261 578.232 142.557 578.344 142.809L579.258 142.404ZM584.672 157.958C584.773 158.215 585.063 158.341 585.32 158.24C585.577 158.139 585.703 157.848 585.602 157.591L584.672 157.958ZM591.345 172.996C591.253 172.736 590.968 172.599 590.707 172.691C590.447 172.783 590.31 173.068 590.402 173.329L591.345 172.996ZM595.593 188.88C595.676 189.144 595.957 189.29 596.22 189.206C596.484 189.123 596.63 188.842 596.547 188.579L595.593 188.88ZM601.259 204.316C601.184 204.05 600.907 203.896 600.642 203.971C600.376 204.047 600.222 204.323 600.297 204.589L601.259 204.316ZM604.577 220.015C604.654 220.28 604.931 220.433 605.197 220.356C605.462 220.279 605.615 220.002 605.538 219.737L604.577 220.015ZM610.052 234.207C609.964 233.946 609.681 233.805 609.419 233.892C609.157 233.98 609.016 234.264 609.104 234.526L610.052 234.207ZM614.279 248.827C614.379 249.085 614.669 249.212 614.926 249.112C615.183 249.011 615.311 248.722 615.21 248.464L614.279 248.827ZM621.106 262.481C620.992 262.229 620.696 262.118 620.445 262.232C620.193 262.346 620.082 262.643 620.196 262.894L621.106 262.481ZM626.902 276.542C627.031 276.786 627.334 276.878 627.578 276.749C627.822 276.619 627.914 276.316 627.785 276.072L626.902 276.542ZM635.382 289.212C635.235 288.979 634.926 288.908 634.692 289.055C634.459 289.202 634.388 289.511 634.535 289.745L635.382 289.212ZM643.158 302.281C643.324 302.501 643.638 302.545 643.858 302.379C644.079 302.213 644.123 301.9 643.957 301.679L643.158 302.281ZM653.652 313.344C653.465 313.141 653.149 313.128 652.946 313.315C652.743 313.502 652.729 313.818 652.916 314.021L653.652 313.344ZM663.835 324.656C664.044 324.837 664.36 324.815 664.541 324.606C664.722 324.398 664.699 324.082 664.491 323.901L663.835 324.656ZM676.501 333.082C676.271 332.928 675.961 332.99 675.808 333.22C675.655 333.45 675.717 333.76 675.946 333.913L676.501 333.082ZM689.185 341.494C689.433 341.614 689.732 341.51 689.852 341.261C689.973 341.012 689.868 340.713 689.62 340.593L689.185 341.494ZM703.669 346.182C703.406 346.099 703.125 346.244 703.042 346.508C702.958 346.771 703.104 347.052 703.368 347.135L703.669 346.182ZM718.206 350.689C718.478 350.734 718.736 350.55 718.781 350.278C718.826 350.005 718.642 349.748 718.37 349.703L718.206 350.689ZM733.416 351.164C733.14 351.155 732.909 351.372 732.9 351.648C732.892 351.924 733.108 352.155 733.384 352.163L733.416 351.164ZM748.623 351.7C748.898 351.675 749.101 351.432 749.076 351.157C749.051 350.882 748.808 350.679 748.533 350.704L748.623 351.7ZM763.525 348.533C763.254 348.587 763.078 348.85 763.132 349.12C763.185 349.391 763.449 349.567 763.719 349.514L763.525 348.533ZM778.522 345.849C778.787 345.771 778.938 345.493 778.86 345.228C778.781 344.963 778.503 344.812 778.238 344.89L778.522 345.849ZM792.568 340.013C792.31 340.112 792.182 340.401 792.281 340.659C792.38 340.917 792.669 341.046 792.927 340.947L792.568 340.013ZM806.972 334.98C807.223 334.864 807.331 334.567 807.215 334.316C807.098 334.066 806.801 333.957 806.551 334.074L806.972 334.98ZM820.085 327.277C819.842 327.408 819.751 327.711 819.882 327.954C820.013 328.197 820.316 328.288 820.559 328.157L820.085 327.277ZM833.214 319.108C833.412 318.916 833.418 318.599 833.226 318.401C833.034 318.202 832.718 318.197 832.519 318.388L833.214 319.108ZM843.246 306.626C843.071 306.84 843.103 307.155 843.318 307.33C843.532 307.504 843.847 307.472 844.021 307.258L843.246 306.626ZM853.527 294.469C853.683 294.241 853.625 293.93 853.397 293.774C853.169 293.618 852.858 293.677 852.702 293.905L853.527 294.469ZM861.239 280.532C861.097 280.769 861.174 281.076 861.411 281.218C861.648 281.36 861.955 281.283 862.096 281.046L861.239 280.532ZM869.96 267.183C870.091 266.94 870.001 266.637 869.758 266.506C869.515 266.375 869.211 266.465 869.08 266.708L869.96 267.183ZM876.382 252.575C876.259 252.822 876.36 253.123 876.607 253.245C876.855 253.368 877.155 253.267 877.278 253.02L876.382 252.575ZM884.17 238.645C884.287 238.394 884.178 238.097 883.927 237.98C883.677 237.864 883.38 237.973 883.263 238.223L884.17 238.645ZM889.82 223.715C889.709 223.968 889.823 224.263 890.076 224.374C890.329 224.485 890.624 224.371 890.735 224.118L889.82 223.715ZM897.05 209.485C897.157 209.231 897.038 208.937 896.784 208.83C896.53 208.722 896.236 208.841 896.129 209.095L897.05 209.485ZM902.254 194.4C902.149 194.655 902.271 194.947 902.527 195.052C902.782 195.157 903.074 195.036 903.179 194.78L902.254 194.4ZM909.179 180.036C909.282 179.78 909.159 179.489 908.902 179.385C908.646 179.282 908.355 179.406 908.252 179.662L909.179 180.036ZM914.18 164.888C914.078 165.144 914.203 165.435 914.459 165.538C914.715 165.64 915.006 165.516 915.109 165.259L914.18 164.888ZM921.02 150.469C921.123 150.213 920.998 149.922 920.742 149.819C920.485 149.716 920.194 149.841 920.092 150.098L921.02 150.469ZM926.036 135.315C925.932 135.571 926.056 135.862 926.312 135.966C926.568 136.069 926.859 135.946 926.963 135.69L926.036 135.315ZM932.991 120.946C933.096 120.691 932.975 120.399 932.72 120.293C932.465 120.188 932.172 120.309 932.067 120.564L932.991 120.946ZM938.245 105.873C938.137 106.127 938.254 106.421 938.508 106.53C938.762 106.639 939.056 106.521 939.165 106.267L938.245 105.873ZM945.557 91.6859C945.67 91.434 945.557 91.138 945.306 91.0248C945.054 90.9115 944.758 91.0239 944.645 91.2757L945.557 91.6859ZM951.355 76.8155C951.235 77.0644 951.34 77.3631 951.589 77.4826C951.838 77.6022 952.137 77.4973 952.256 77.2484L951.355 76.8155ZM959.38 63.0239C959.508 62.7793 959.414 62.4771 959.169 62.3489C958.924 62.2207 958.622 62.3151 958.494 62.5596L959.38 63.0239ZM966.219 48.6205C966.079 48.8584 966.158 49.1649 966.396 49.305C966.634 49.4452 966.94 49.3659 967.08 49.128L966.219 48.6205ZM975.567 35.7678C975.724 35.5406 975.667 35.2292 975.44 35.0722C975.213 34.9153 974.901 34.9723 974.745 35.1995L975.567 35.7678ZM984.511 22.5101C984.33 22.7184 984.352 23.0342 984.56 23.2155C984.769 23.3968 985.084 23.3749 985.266 23.1666L984.511 22.5101ZM996.604 12.1502C996.82 11.9784 996.856 11.6639 996.684 11.4477C996.512 11.2314 996.198 11.1954 995.982 11.3671L996.604 12.1502ZM1009.79 3.29211C1009.53 3.38996 1009.4 3.67862 1009.5 3.93684C1009.59 4.19507 1009.88 4.32508 1010.14 4.22723L1009.79 3.29211ZM1025.47 1.86287C1025.75 1.88068 1025.99 1.67173 1026.01 1.39616C1026.02 1.12059 1025.81 0.882764 1025.54 0.864953L1025.47 1.86287ZM1041.06 5.01903C1040.81 4.90276 1040.51 5.01156 1040.4 5.26203C1040.28 5.51251 1040.39 5.80981 1040.64 5.92607L1041.06 5.01903ZM1053.88 14.1841C1054.09 14.3537 1054.41 14.3146 1054.58 14.0967C1054.75 13.8788 1054.71 13.5647 1054.49 13.395L1053.88 14.1841ZM1066.28 24.0835C1066.09 23.8853 1065.77 23.8805 1065.57 24.0727C1065.37 24.265 1065.37 24.5816 1065.56 24.7798L1066.28 24.0835ZM1075.58 37.7262C1075.71 37.9714 1076.01 38.0672 1076.26 37.9402C1076.5 37.8132 1076.6 37.5115 1076.47 37.2663L1075.58 37.7262ZM1082.33 53.0817C1082.25 52.815 1081.98 52.657 1081.71 52.7287C1081.45 52.8004 1081.29 53.0747 1081.36 53.3414L1082.33 53.0817ZM1084.84 69.7096C1084.89 69.9819 1085.14 70.1651 1085.42 70.1189C1085.69 70.0727 1085.87 69.8145 1085.82 69.5423L1084.84 69.7096ZM1088.22 86.1862C1088.19 85.9121 1087.94 85.7175 1087.66 85.7515C1087.39 85.7854 1087.19 86.0351 1087.23 86.3091L1088.22 86.1862ZM1089.1 102.983C1089.13 103.258 1089.38 103.457 1089.65 103.429C1089.93 103.4 1090.13 103.154 1090.1 102.879L1089.1 102.983ZM1091.8 119.594C1091.77 119.319 1091.53 119.119 1091.25 119.147C1090.98 119.175 1090.78 119.42 1090.8 119.695L1091.8 119.594ZM1092.55 136.414C1092.58 136.689 1092.83 136.887 1093.1 136.857C1093.38 136.827 1093.58 136.58 1093.55 136.305L1092.55 136.414ZM1095.51 152.953C1095.47 152.679 1095.22 152.486 1094.95 152.521C1094.67 152.556 1094.48 152.806 1094.51 153.08L1095.51 152.953ZM1096.85 169.726C1096.89 169.999 1097.14 170.186 1097.42 170.144C1097.69 170.102 1097.88 169.846 1097.84 169.574L1096.85 169.726ZM1100.67 186.102C1100.61 185.831 1100.35 185.653 1100.08 185.704C1099.81 185.756 1099.63 186.017 1099.68 186.289L1100.67 186.102ZM1103.17 202.734C1103.23 203.003 1103.5 203.169 1103.77 203.106C1104.04 203.043 1104.2 202.774 1104.14 202.505L1103.17 202.734ZM1108.39 218.715C1108.32 218.45 1108.04 218.298 1107.77 218.375C1107.51 218.453 1107.36 218.73 1107.43 218.995L1108.39 218.715ZM1112.64 234.987C1112.73 235.247 1113.02 235.381 1113.28 235.287C1113.54 235.194 1113.67 234.907 1113.58 234.647L1112.64 234.987ZM1119.84 250.174C1119.73 249.922 1119.43 249.81 1119.18 249.923C1118.93 250.036 1118.82 250.332 1118.93 250.583L1119.84 250.174ZM1126.46 265.632C1126.59 265.873 1126.9 265.96 1127.14 265.826C1127.38 265.691 1127.47 265.387 1127.33 265.146L1126.46 265.632ZM1136.15 279.359C1136 279.132 1135.69 279.075 1135.46 279.232C1135.23 279.389 1135.18 279.701 1135.33 279.928L1136.15 279.359ZM1145.62 293.242C1145.8 293.451 1146.12 293.474 1146.33 293.293C1146.54 293.113 1146.56 292.797 1146.38 292.588L1145.62 293.242ZM1158 304.607C1157.79 304.42 1157.48 304.432 1157.29 304.635C1157.1 304.838 1157.11 305.154 1157.32 305.342L1158 304.607ZM1171.71 313.213C1171.98 313.285 1172.25 313.128 1172.33 312.862C1172.4 312.596 1172.24 312.321 1171.98 312.248L1171.71 313.213ZM1187.83 316.139C1187.56 316.081 1187.29 316.252 1187.23 316.522C1187.17 316.792 1187.34 317.058 1187.61 317.117L1187.83 316.139ZM1203.74 320.048C1204.01 320.087 1204.27 319.898 1204.3 319.625C1204.34 319.351 1204.16 319.098 1203.88 319.058L1203.74 320.048ZM1220.1 320.719C1219.82 320.703 1219.59 320.914 1219.57 321.19C1219.56 321.466 1219.77 321.702 1220.04 321.717L1220.1 320.719ZM1236.44 321.775C1236.71 321.76 1236.93 321.524 1236.91 321.248C1236.9 320.973 1236.66 320.761 1236.38 320.776L1236.44 321.775ZM1252.53 318.816C1252.26 318.869 1252.08 319.131 1252.14 319.402C1252.19 319.673 1252.45 319.85 1252.72 319.797L1252.53 318.816ZM1268.52 315.348C1268.78 315.25 1268.91 314.961 1268.81 314.703C1268.71 314.445 1268.42 314.315 1268.16 314.412L1268.52 315.348ZM1282.74 307.266C1282.5 307.411 1282.43 307.719 1282.57 307.954C1282.72 308.189 1283.03 308.262 1283.26 308.117L1282.74 307.266ZM1296.31 298.151C1296.51 297.963 1296.52 297.646 1296.33 297.444C1296.15 297.242 1295.83 297.231 1295.63 297.42L1296.31 298.151ZM1306.43 285.291C1306.26 285.512 1306.31 285.826 1306.53 285.99C1306.75 286.155 1307.06 286.108 1307.23 285.887L1306.43 285.291ZM1315.92 272.004C1316.05 271.759 1315.95 271.457 1315.71 271.328C1315.46 271.199 1315.16 271.293 1315.03 271.537L1315.92 272.004ZM1321.66 256.722C1321.56 256.98 1321.69 257.269 1321.95 257.366C1322.21 257.464 1322.5 257.333 1322.59 257.075L1321.66 256.722ZM1327.6 241.408C1327.67 241.141 1327.51 240.867 1327.24 240.796C1326.97 240.725 1326.7 240.883 1326.63 241.15L1327.6 241.408ZM1330.18 225.285C1330.13 225.556 1330.31 225.817 1330.58 225.867C1330.85 225.917 1331.11 225.737 1331.16 225.465L1330.18 225.285ZM1333.57 209.311C1333.61 209.036 1333.41 208.788 1333.14 208.756C1332.86 208.723 1332.61 208.919 1332.58 209.194L1333.57 209.311ZM1334.04 192.951C1334.03 193.226 1334.24 193.464 1334.51 193.482C1334.79 193.5 1335.02 193.291 1335.04 193.015L1334.04 192.951ZM1335.72 176.667C1335.72 176.391 1335.5 176.163 1335.23 176.157C1334.95 176.152 1334.72 176.371 1334.72 176.648L1335.72 176.667ZM1334.72 160.331C1334.73 160.607 1334.95 160.827 1335.23 160.822C1335.51 160.817 1335.73 160.589 1335.72 160.313L1334.72 160.331ZM0.521689 212.646C1.2394 215.002 2.09154 217.668 3.07824 220.586L4.02555 220.266C3.04205 217.357 2.19302 214.701 1.47831 212.354L0.521689 212.646ZM8.82445 236.241C10.7531 241.117 12.9319 246.293 15.3614 251.629L16.2715 251.215C13.8496 245.896 11.6773 240.734 9.75433 235.873L8.82445 236.241ZM22.6944 266.63C25.2446 271.489 27.9906 276.369 30.9326 281.173L31.7854 280.651C28.8561 275.868 26.1209 271.007 23.5798 266.165L22.6944 266.63ZM40.2138 295.075C43.5256 299.609 47.0326 303.972 50.7353 308.067L51.477 307.396C47.8005 303.33 44.3152 298.994 41.0213 294.485L40.2138 295.075ZM62.7522 319.723C67.1019 323.371 71.6735 326.609 76.4676 329.317L76.9595 328.447C72.2252 325.772 67.7036 322.571 63.3949 318.957L62.7522 319.723ZM91.8943 335.85C97.1906 337.367 102.712 338.223 108.457 338.299L108.47 337.299C102.817 337.224 97.3839 336.382 92.1696 334.889L91.8943 335.85ZM125.112 336.381C127.757 335.745 130.443 334.944 133.168 333.971L132.832 333.029C130.139 333.991 127.488 334.781 124.878 335.409L125.112 336.381ZM133.184 333.965C135.716 332.961 138.197 331.755 140.631 330.361L140.134 329.494C137.739 330.865 135.301 332.05 132.816 333.035L133.184 333.965ZM153.879 320.591C157.779 317.056 161.562 313.034 165.248 308.587L164.478 307.949C160.818 312.365 157.067 316.352 153.207 319.85L153.879 320.591ZM175.088 295.43C178.083 291.036 181.021 286.376 183.914 281.485L183.053 280.976C180.17 285.851 177.243 290.493 174.262 294.866L175.088 295.43ZM191.967 267.105C194.484 262.379 196.975 257.496 199.446 252.485L198.549 252.043C196.082 257.046 193.596 261.919 191.084 266.635L191.967 267.105ZM206.547 237.657C208.833 232.755 211.11 227.762 213.384 222.7L212.471 222.29C210.199 227.349 207.924 232.338 205.64 237.235L206.547 237.657ZM220.053 207.667C222.243 202.682 224.436 197.653 226.638 192.599L225.722 192.199C223.519 197.254 221.327 202.282 219.138 207.265L220.053 207.667ZM233.214 177.53C235.409 172.516 237.619 167.497 239.85 162.49L238.937 162.083C236.705 167.092 234.494 172.114 232.298 177.128L233.214 177.53ZM246.616 147.513C248.91 142.514 251.231 137.548 253.583 132.633L252.681 132.201C250.326 137.122 248.003 142.093 245.707 147.096L246.616 147.513ZM260.829 117.894C263.323 112.964 265.858 108.109 268.439 103.349L267.56 102.873C264.974 107.641 262.435 112.505 259.937 117.442L260.829 117.894ZM276.509 89.0715C279.338 84.2815 282.227 79.6216 285.181 75.1159L284.345 74.5675C281.381 79.0876 278.485 83.7609 275.648 88.5629L276.509 89.0715ZM294.58 61.6439C297.917 57.1646 301.34 52.8937 304.857 48.8613L304.104 48.2039C300.568 52.2577 297.129 56.5488 293.778 61.0464L294.58 61.6439ZM316.181 37.0572C320.243 33.2378 324.428 29.7398 328.748 26.6018L328.16 25.7927C323.803 28.9579 319.585 32.4833 315.496 36.3287L316.181 37.0572ZM342.667 18.0284C347.544 15.5465 352.585 13.5112 357.806 11.9683L357.523 11.0093C352.24 12.5705 347.142 14.629 342.213 17.1372L342.667 18.0284ZM373.786 8.88407C376.478 8.62972 379.215 8.49993 382 8.49993V7.49993C379.184 7.49993 376.415 7.63117 373.691 7.8885L373.786 8.88407ZM381.955 8.49787C384.555 8.73423 387.279 8.95042 390.115 9.16912L390.192 8.17209C387.357 7.95343 384.638 7.73768 382.045 7.50198L381.955 8.49787ZM406.502 10.5132C411.711 11.0048 417.159 11.6118 422.799 12.4319L422.943 11.4424C417.282 10.6192 411.816 10.0103 406.596 9.5176L406.502 10.5132ZM438.958 15.345C444.142 16.4777 449.436 17.8408 454.805 19.499L455.1 18.5435C449.701 16.8763 444.381 15.5061 439.171 14.3681L438.958 15.345ZM470.217 25.0517C475.127 27.0887 480.072 29.4114 485.029 32.0662L485.501 31.1847C480.514 28.5137 475.539 26.1771 470.6 24.1281L470.217 25.0517ZM499.06 40.5008C503.452 43.4447 507.834 46.6839 512.192 50.2509L512.825 49.4771C508.443 45.8899 504.035 42.6317 499.617 39.6702L499.06 40.5008ZM524.401 61.2082C528.168 64.9032 531.904 68.874 535.597 73.1426L536.353 72.4884C532.643 68.1994 528.888 64.2086 525.101 60.4942L524.401 61.2082ZM545.879 85.976C549.022 90.2066 552.125 94.6797 555.18 99.4101L556.02 98.8676C552.954 94.1194 549.838 89.6281 546.681 85.3795L545.879 85.976ZM563.656 113.441C566.269 118.06 568.838 122.891 571.359 127.943L572.254 127.496C569.726 122.429 567.148 117.583 564.527 112.949L563.656 113.441ZM578.344 142.809C580.497 147.674 582.607 152.721 584.672 157.958L585.602 157.591C583.532 152.342 581.417 147.282 579.258 142.404L578.344 142.809ZM590.402 173.329C592.173 178.353 593.904 183.535 595.593 188.88L596.547 188.579C594.855 183.224 593.12 178.031 591.345 172.996L590.402 173.329ZM600.297 204.589C601.047 207.232 601.787 209.912 602.517 212.63L603.483 212.37C602.752 209.649 602.01 206.964 601.259 204.316L600.297 204.589ZM602.517 212.63C603.187 215.125 603.874 217.586 604.577 220.015L605.538 219.737C604.837 217.315 604.152 214.859 603.483 212.37L602.517 212.63ZM609.104 234.526C610.756 239.447 612.481 244.214 614.279 248.827L615.21 248.464C613.419 243.866 611.699 239.114 610.052 234.207L609.104 234.526ZM620.196 262.894C622.346 267.631 624.582 272.18 626.902 276.542L627.785 276.072C625.475 271.73 623.249 267.2 621.106 262.481L620.196 262.894ZM634.535 289.745C637.31 294.156 640.185 298.335 643.158 302.281L643.957 301.679C641.002 297.757 638.142 293.601 635.382 289.212L634.535 289.745ZM652.916 314.021C656.441 317.854 660.082 321.399 663.835 324.656L664.491 323.901C660.767 320.669 657.153 317.15 653.652 313.344L652.916 314.021ZM675.946 333.913C680.236 336.775 684.651 339.302 689.185 341.494L689.62 340.593C685.128 338.422 680.754 335.918 676.501 333.082L675.946 333.913ZM703.368 347.135C708.2 348.665 713.148 349.849 718.206 350.689L718.37 349.703C713.358 348.871 708.456 347.697 703.669 346.182L703.368 347.135ZM733.384 352.163C738.373 352.318 743.454 352.164 748.623 351.7L748.533 350.704C743.403 351.164 738.362 351.317 733.416 351.164L733.384 352.163ZM763.719 349.514C768.585 348.55 773.521 347.328 778.522 345.849L778.238 344.89C773.265 346.361 768.36 347.575 763.525 348.533L763.719 349.514ZM792.927 340.947C797.558 339.168 802.241 337.18 806.972 334.98L806.551 334.074C801.839 336.264 797.177 338.243 792.568 340.013L792.927 340.947ZM820.559 328.157C822.779 326.961 825.009 325.719 827.249 324.434L826.751 323.566C824.519 324.848 822.297 326.085 820.085 327.277L820.559 328.157ZM827.318 324.386C829.31 322.742 831.275 320.98 833.214 319.108L832.519 318.388C830.597 320.244 828.652 321.988 826.682 323.614L827.318 324.386ZM844.021 307.258C847.257 303.282 850.424 299.007 853.527 294.469L852.702 293.905C849.612 298.423 846.462 302.675 843.246 306.626L844.021 307.258ZM862.096 281.046C864.76 276.597 867.38 271.967 869.96 267.183L869.08 266.708C866.506 271.481 863.894 276.098 861.239 280.532L862.096 281.046ZM877.278 253.02C879.603 248.333 881.9 243.534 884.17 238.645L883.263 238.223C880.996 243.106 878.703 247.897 876.382 252.575L877.278 253.02ZM890.735 224.118C892.859 219.299 894.963 214.415 897.05 209.485L896.129 209.095C894.043 214.022 891.941 218.901 889.82 223.715L890.735 224.118ZM903.179 194.78C905.191 189.887 907.19 184.967 909.179 180.036L908.252 179.662C906.263 184.591 904.265 189.51 902.254 194.4L903.179 194.78ZM915.109 165.259C917.085 160.317 919.054 155.382 921.02 150.469L920.092 150.098C918.126 155.01 916.156 159.947 914.18 164.888L915.109 165.259ZM926.963 135.69C928.971 130.727 930.979 125.807 932.991 120.946L932.067 120.564C930.054 125.427 928.045 130.35 926.036 135.315L926.963 135.69ZM939.165 106.267C941.287 101.313 943.416 96.4453 945.557 91.6859L944.645 91.2757C942.501 96.0414 940.37 100.914 938.245 105.873L939.165 106.267ZM952.256 77.2484C954.612 72.3444 956.984 67.594 959.38 63.0239L958.494 62.5596C956.093 67.1415 953.715 71.9025 951.355 76.8155L952.256 77.2484ZM967.08 49.128C969.872 44.389 972.698 39.9225 975.567 35.7678L974.745 35.1995C971.859 39.377 969.02 43.8642 966.219 48.6205L967.08 49.128ZM985.266 23.1666C988.965 18.9155 992.74 15.2189 996.604 12.1502L995.982 11.3671C992.061 14.4811 988.243 18.2224 984.511 22.5101L985.266 23.1666ZM1010.14 4.22723C1015.09 2.35316 1020.19 1.52116 1025.47 1.86287L1025.54 0.864953C1020.1 0.513486 1014.86 1.37055 1009.79 3.29211L1010.14 4.22723ZM1040.64 5.92607C1044.92 7.91246 1049.33 10.6439 1053.88 14.1841L1054.49 13.395C1049.89 9.81611 1045.42 7.0422 1041.06 5.01903L1040.64 5.92607ZM1065.56 24.7798C1067.39 26.6692 1069.25 28.6845 1071.12 30.8292L1071.88 30.1708C1069.99 28.0141 1068.12 25.9861 1066.28 24.0835L1065.56 24.7798ZM1071.11 30.817C1072.75 32.8195 1074.24 35.13 1075.58 37.7262L1076.47 37.2663C1075.1 34.6196 1073.58 32.2485 1071.89 30.183L1071.11 30.817ZM1081.36 53.3414C1082.7 58.3355 1083.84 63.8165 1084.84 69.7096L1085.82 69.5423C1084.82 63.6283 1083.68 58.1149 1082.33 53.0817L1081.36 53.3414ZM1087.23 86.3091C1087.89 91.6553 1088.5 97.2269 1089.1 102.983L1090.1 102.879C1089.5 97.12 1088.88 91.5413 1088.22 86.1862L1087.23 86.3091ZM1090.8 119.695C1091.36 125.161 1091.93 130.744 1092.55 136.414L1093.55 136.305C1092.92 130.64 1092.35 125.059 1091.8 119.594L1090.8 119.695ZM1094.51 153.08C1095.22 158.586 1095.99 164.143 1096.85 169.726L1097.84 169.574C1096.98 164.001 1096.21 158.452 1095.51 152.953L1094.51 153.08ZM1099.68 186.289C1100.73 191.779 1101.88 197.269 1103.17 202.734L1104.14 202.505C1102.86 197.055 1101.71 191.58 1100.67 186.102L1099.68 186.289ZM1107.43 218.995C1109.01 224.383 1110.73 229.722 1112.64 234.987L1113.58 234.647C1111.68 229.403 1109.96 224.085 1108.39 218.715L1107.43 218.995ZM1118.93 250.583C1121.23 255.707 1123.73 260.732 1126.46 265.632L1127.33 265.146C1124.62 260.272 1122.13 255.273 1119.84 250.174L1118.93 250.583ZM1135.33 279.928C1138.51 284.521 1141.93 288.967 1145.62 293.242L1146.38 292.588C1142.71 288.342 1139.31 283.924 1136.15 279.359L1135.33 279.928ZM1157.32 305.342C1159.37 307.237 1161.49 309.086 1163.68 310.886L1164.32 310.114C1162.14 308.326 1160.03 306.489 1158 304.607L1157.32 305.342ZM1163.86 310.98C1166.41 311.734 1169.03 312.482 1171.71 313.213L1171.98 312.248C1169.3 311.519 1166.69 310.773 1164.14 310.02L1163.86 310.98ZM1187.61 317.117C1192.87 318.252 1198.26 319.254 1203.74 320.048L1203.88 319.058C1198.43 318.268 1193.06 317.271 1187.83 316.139L1187.61 317.117ZM1220.04 321.717C1225.5 322.027 1230.99 322.069 1236.44 321.775L1236.38 320.776C1230.97 321.068 1225.53 321.027 1220.1 320.719L1220.04 321.717ZM1252.72 319.797C1258.09 318.749 1263.38 317.29 1268.52 315.348L1268.16 314.412C1263.08 316.333 1257.85 317.778 1252.53 318.816L1252.72 319.797ZM1283.26 308.117C1287.81 305.309 1292.17 302.007 1296.31 298.151L1295.63 297.42C1291.54 301.23 1287.23 304.493 1282.74 307.266L1283.26 308.117ZM1307.23 285.887C1310.33 281.706 1313.24 277.09 1315.92 272.004L1315.03 271.537C1312.38 276.581 1309.5 281.153 1306.43 285.291L1307.23 285.887ZM1322.59 257.075C1324.43 252.195 1326.11 246.98 1327.6 241.408L1326.63 241.15C1325.15 246.692 1323.49 251.876 1321.66 256.722L1322.59 257.075ZM1331.16 225.465C1332.1 220.337 1332.91 214.956 1333.57 209.311L1332.58 209.194C1331.92 214.819 1331.11 220.179 1330.18 225.285L1331.16 225.465ZM1335.04 193.015C1335.38 187.768 1335.61 182.321 1335.72 176.667L1334.72 176.648C1334.61 182.288 1334.38 187.72 1334.04 192.951L1335.04 193.015ZM1335.72 160.313C1335.7 159.046 1335.67 157.77 1335.64 156.485L1334.64 156.511C1334.67 157.794 1334.7 159.067 1334.72 160.331L1335.72 160.313Z" fill="white"/>
</svg>
